<?xml version="1.0" encoding="utf-8"?>
<!-- Generator: Adobe Illustrator 16.0.0, SVG Export Plug-In . SVG Version: 6.00 Build 0)  -->
<!DOCTYPE svg PUBLIC "-//W3C//DTD SVG 1.1//EN" "http://www.w3.org/Graphics/SVG/1.1/DTD/svg11.dtd">
<svg version="1.1" id="Layer_1" xmlns="http://www.w3.org/2000/svg" xmlns:xlink="http://www.w3.org/1999/xlink" x="0px" y="0px"
	 width="345.188px" height="293.545px" viewBox="0 0 345.188 293.545" enable-background="new 0 0 345.188 293.545"
	 xml:space="preserve">
<g>
	<defs>
		<rect id="SVGID_1_" width="345.188" height="293.545"/>
	</defs>
	<clipPath id="SVGID_2_">
		<use xlink:href="#SVGID_1_"  overflow="visible"/>
	</clipPath>
	<path clip-path="url(#SVGID_2_)" fill="none" stroke="#FFFFFF" stroke-width="4" stroke-miterlimit="10" d="M254.764,2
		c-37.296,0-69.175,23.102-82.17,55.766C159.6,25.102,127.72,2,90.424,2C41.589,2,2,41.589,2,90.425
		c0,97.694,170.594,200.777,170.594,200.777S343.188,185.979,343.188,90.425C343.188,41.589,303.599,2,254.764,2z"/>
	<path clip-path="url(#SVGID_2_)" fill="none" stroke="#A41F35" stroke-miterlimit="10" d="M67.559,203.942
		c-7.858,0-14.575,4.867-17.313,11.75c-2.738-6.883-9.455-11.75-17.314-11.75c-10.29,0-18.631,8.341-18.631,18.631
		c0,20.585,35.945,42.305,35.945,42.305s35.944-22.171,35.944-42.305C86.19,212.283,77.849,203.942,67.559,203.942z"/>
	<path clip-path="url(#SVGID_2_)" fill="none" stroke="#A41F35" stroke-miterlimit="10" d="M312.256,203.942
		c-7.857,0-14.574,4.867-17.312,11.75c-2.738-6.883-9.455-11.75-17.314-11.75c-10.29,0-18.631,8.341-18.631,18.631
		c0,20.585,35.945,42.305,35.945,42.305s35.943-22.171,35.943-42.305C330.887,212.283,322.546,203.942,312.256,203.942z"/>
	<path clip-path="url(#SVGID_2_)" fill="#009ECA" d="M239.805,28.324c-30.506,0-56.582,18.896-67.211,45.614
		c-10.629-26.718-36.705-45.614-67.211-45.614c-39.945,0-72.327,32.382-72.327,72.327c0,79.91,139.538,164.227,139.538,164.227
		s139.538-86.067,139.538-164.227C312.132,60.706,279.751,28.324,239.805,28.324 M242.666,62.194c6.127,0,11.093,4.759,11.093,10.63
		s-4.966,10.63-11.093,10.63c-6.126,0-11.092-4.759-11.092-10.63S236.54,62.194,242.666,62.194 M231.574,114.883
		c-7.19,0-13.02-5.535-13.02-12.364c0-6.828,5.829-12.363,13.02-12.363c7.188,0,13.018,5.535,13.018,12.363
		C244.592,109.348,238.763,114.883,231.574,114.883 M260.408,125.975c-5.901,0-10.685-5.742-10.685-12.825
		c0-7.084,4.783-12.826,10.685-12.826c5.899,0,10.683,5.742,10.683,12.826C271.091,120.233,266.308,125.975,260.408,125.975
		 M265.813,95.163c-4.785,0-8.666-4.242-8.666-9.475c0-5.233,3.881-9.475,8.666-9.475c4.786,0,8.666,4.242,8.666,9.475
		C274.479,90.921,270.6,95.163,265.813,95.163"/>
</g>
</svg>
