<?xml version="1.0" encoding="utf-8"?>
<!-- Generator: Adobe Illustrator 16.0.0, SVG Export Plug-In . SVG Version: 6.00 Build 0)  -->
<!DOCTYPE svg PUBLIC "-//W3C//DTD SVG 1.1//EN" "http://www.w3.org/Graphics/SVG/1.1/DTD/svg11.dtd">
<svg version="1.1" id="Layer_1" xmlns="http://www.w3.org/2000/svg" xmlns:xlink="http://www.w3.org/1999/xlink" x="0px" y="0px"
	 width="334.168px" height="208.538px" viewBox="0 0 334.168 208.538" enable-background="new 0 0 334.168 208.538"
	 xml:space="preserve">
<g>
	<defs>
		<rect id="SVGID_1_" width="334.168" height="208.538"/>
	</defs>
	<clipPath id="SVGID_2_">
		<use xlink:href="#SVGID_1_"  overflow="visible"/>
	</clipPath>
	<path clip-path="url(#SVGID_2_)" fill="#249FDA" d="M53.091,108.876l-3.879-2.24l-1.208-0.699c-0.473-0.36-0.779-0.93-0.779-1.571
		c0-0.64,0.306-1.209,0.779-1.572l1.208-0.701l-3.872-2.245c-1.275,1.09-2.084,2.709-2.084,4.518c0,1.803,0.805,3.42,2.076,4.51
		c0.213,0.183,0.438,0.351,0.676,0.502l13.913,8.025c0.879,0.511,1.901,0.807,2.992,0.807c3.288,0,5.953-2.664,5.953-5.948V96.437
		c0-3.283-2.665-5.946-5.953-5.946c-1.097,0-2.124,0.297-3.006,0.814l-10.697,6.193l3.206,1.855c0.234,0.15,0.457,0.316,0.668,0.495
		l8.814-5.111c0.298-0.178,0.644-0.282,1.015-0.282c1.096,0,1.985,0.888,1.985,1.982v15.825c0,1.095-0.889,1.983-1.985,1.983
		c-0.366,0-0.707-0.102-1.002-0.275L53.091,108.876"/>
	<path clip-path="url(#SVGID_2_)" fill="#003257" d="M129.995,109.979V98.32h5.552v-3.84h-5.552v-5.214h-3.985v20.713
		c0,6.209,3.937,9.575,9.632,8.911v-3.698C132.604,115.383,129.995,114.293,129.995,109.979"/>
	<path clip-path="url(#SVGID_2_)" fill="#249FDA" d="M119.054,86.86c-1.344,0-2.432,1.087-2.432,2.429
		c0,1.342,1.088,2.43,2.432,2.43c1.344,0,2.432-1.088,2.432-2.43C121.486,87.947,120.398,86.86,119.054,86.86"/>
	<path clip-path="url(#SVGID_2_)" fill="#003257" d="M169.096,110.595V85.082h-4.102v25.513c0,4.484,3.652,8.133,8.142,8.133v-4.096
		C170.907,114.632,169.096,112.821,169.096,110.595"/>
	<polygon clip-path="url(#SVGID_2_)" fill="#003257" points="106.606,87.245 96.838,110.794 87.118,87.245 81.529,87.245 
		81.529,118.534 85.428,118.534 85.428,92.781 96.041,118.534 97.638,118.534 108.296,92.781 108.296,118.534 112.197,118.534 
		112.197,87.245 	"/>
	<path clip-path="url(#SVGID_2_)" fill="#003257" d="M49.211,102.093l1.208,0.701c0.473,0.363,0.779,0.931,0.779,1.571
		c0,0.642-0.306,1.21-0.779,1.573l-1.208,0.696l3.879,2.241c1.271-1.09,2.077-2.707,2.077-4.511c0-1.808-0.809-3.427-2.085-4.517
		c-0.211-0.18-0.433-0.345-0.667-0.494l-13.899-8.05c-0.883-0.516-1.91-0.813-3.006-0.813c-3.289,0-5.954,2.662-5.954,5.946v15.825
		c0,3.285,2.665,5.947,5.954,5.947c1.091,0,2.111-0.295,2.992-0.806l10.709-6.178l-3.204-1.848c-0.237-0.15-0.463-0.318-0.676-0.502
		l-8.82,5.094c-0.294,0.175-0.636,0.275-1.001,0.275c-1.096,0-1.985-0.889-1.985-1.983V96.437c0-1.095,0.889-1.982,1.985-1.982
		c0.371,0,0.717,0.105,1.014,0.282l8.815,5.111h0.001L49.211,102.093"/>
	<path clip-path="url(#SVGID_2_)" fill="#003257" d="M173.047,85.117c1.234,0,2.269,0.973,2.269,2.248
		c0,1.299-1.034,2.274-2.269,2.274c-1.241,0-2.282-0.975-2.282-2.274C170.765,86.09,171.806,85.117,173.047,85.117 M173.047,89.306
		c1.047,0,1.857-0.834,1.857-1.941c0-1.082-0.811-1.916-1.857-1.916c-1.06,0-1.87,0.834-1.87,1.916
		C171.177,88.472,171.987,89.306,173.047,89.306 M172.162,86.054h1.023c0.629,0,0.926,0.248,0.926,0.756
		c0,0.477-0.303,0.677-0.696,0.718l0.757,1.167h-0.441l-0.721-1.136h-0.437v1.136h-0.411V86.054z M172.573,87.226h0.43
		c0.363,0,0.697-0.018,0.697-0.434c0-0.351-0.304-0.406-0.582-0.406h-0.545V87.226z"/>
	<rect x="117.034" y="94.112" clip-path="url(#SVGID_2_)" fill="#003257" width="4.039" height="24.438"/>
	<path clip-path="url(#SVGID_2_)" fill="#003257" d="M149.624,115.809c-4.034,0-7.926-2.986-8.447-8.058h20.546
		c0.048-8.674-6.025-13.887-12.337-13.887c-6.786,0-12.29,5.782-12.29,12.844c0,7.158,5.504,12.751,12.528,12.751
		c5.646,0,9.822-2.939,11.53-8.152h-4.27C155.555,114.149,153.087,115.809,149.624,115.809 M149.343,97.514
		c3.559,0,6.881,2.654,7.877,6.635h-15.849C142.415,99.978,145.974,97.514,149.343,97.514"/>
	
		<circle clip-path="url(#SVGID_2_)" fill="none" stroke="#009ECA" stroke-width="0.828" stroke-linejoin="round" stroke-miterlimit="10" cx="102.155" cy="106.383" r="101.741"/>
	
		<circle clip-path="url(#SVGID_2_)" fill="none" stroke="#009ECA" stroke-width="0.759" stroke-linejoin="round" stroke-miterlimit="10" cx="284.982" cy="49.185" r="48.806"/>
	<path clip-path="url(#SVGID_2_)" fill="#8AD1EB" d="M289.933,34.649c0,4.014-3.395,7.268-7.584,7.268
		c-4.188,0-7.584-3.254-7.584-7.268c0-4.014,3.396-7.268,7.584-7.268C286.538,27.381,289.933,30.635,289.933,34.649"/>
	<path clip-path="url(#SVGID_2_)" fill="#B1DEEB" d="M304.1,43.444c0,3.578-2.652,6.478-5.925,6.478c-3.271,0-5.925-2.9-5.925-6.478
		s2.653-6.478,5.925-6.478C301.447,36.966,304.1,39.866,304.1,43.444"/>
	<path clip-path="url(#SVGID_2_)" fill="#2CB8D7" d="M283.666,54.952c0,4.668-3.985,8.453-8.901,8.453
		c-4.915,0-8.899-3.785-8.899-8.453c0-4.668,3.984-8.453,8.899-8.453C279.681,46.499,283.666,50.284,283.666,54.952"/>
	<path clip-path="url(#SVGID_2_)" fill="#009ECA" d="M301.783,62.22c0,4.843-3.271,8.769-7.305,8.769s-7.304-3.926-7.304-8.769
		c0-4.843,3.27-8.769,7.304-8.769S301.783,57.377,301.783,62.22"/>
	
		<line clip-path="url(#SVGID_2_)" fill="none" stroke="#009ECA" stroke-width="0.759" stroke-linejoin="round" stroke-miterlimit="10" x1="197.57" y1="70.989" x2="237.209" y2="59.208"/>
</g>
</svg>
