<?xml version="1.0" encoding="utf-8"?>
<!-- Generator: Adobe Illustrator 16.0.0, SVG Export Plug-In . SVG Version: 6.00 Build 0)  -->
<!DOCTYPE svg PUBLIC "-//W3C//DTD SVG 1.1//EN" "http://www.w3.org/Graphics/SVG/1.1/DTD/svg11.dtd">
<svg version="1.1" id="Layer_1" xmlns="http://www.w3.org/2000/svg" xmlns:xlink="http://www.w3.org/1999/xlink" x="0px" y="0px"
	 width="316.969px" height="287.529px" viewBox="0 0 316.969 287.529" enable-background="new 0 0 316.969 287.529"
	 xml:space="preserve">
<g>
	<defs>
		<rect id="SVGID_1_" width="316.969" height="287.529"/>
	</defs>
	<clipPath id="SVGID_2_">
		<use xlink:href="#SVGID_1_"  overflow="visible"/>
	</clipPath>
	
		<circle clip-path="url(#SVGID_2_)" fill="none" stroke="#B0D4F7" stroke-width="0.886" stroke-miterlimit="10" cx="203.469" cy="140.075" r="100.113"/>
	<circle clip-path="url(#SVGID_2_)" fill="none" stroke="#B0D4F7" stroke-miterlimit="10" cx="203.469" cy="140.075" r="113"/>
	
		<line clip-path="url(#SVGID_2_)" fill="none" stroke="#B0D4F7" stroke-miterlimit="10" x1="192.032" y1="143.075" x2="232.115" y2="81.28"/>
	
		<line clip-path="url(#SVGID_2_)" fill="none" stroke="#B0D4F7" stroke-miterlimit="10" x1="242.65" y1="175.908" x2="192.032" y2="143.076"/>
	<path clip-path="url(#SVGID_2_)" fill="#FFFFFF" d="M169.719,228.105l-6.433-30.521c-4.673-22.17-24.235-38.038-46.892-38.038
		c0-0.986-2.775-1.876-7.069-2.582v-8.46l-0.068,0.001c22.644-4.785,39.732-18.567,43.683-47c3.495-0.171,6.307-6.928,6.307-15.255
		c0-8.21-2.735-14.888-6.162-15.237c-2.571-14.276-11.807-26.335-24.55-34.577h0.008c1.902-2.312,2.946-4.829,2.946-7.461
		c0-11.308-19.262-20.475-43.023-20.475c-23.761,0-43.022,9.167-43.022,20.475c0,2.587,1.008,5.062,2.847,7.34h0.004
		C35.302,44.8,25.692,57.266,22.614,71.601c-0.69,3.208-1.052,6.51-1.052,9.882c0,6.938,0.167,10.222,0.871,11.086
		c0.032,33.635,19.786,51.074,46.872,56.274l-0.051,0.001v7.466h-0.001c-4.254,0.688-7.006,1.764-7.034,3.312h-0.004
		c-20.756,1.17-38.532,15.663-43.718,36.008l-7.431,29.154c-13.129,51.507,25.787,54.244,78.94,54.244
		C141.758,279.029,180.393,278.744,169.719,228.105"/>
	<path clip-path="url(#SVGID_2_)" fill="none" stroke="#FFFFFF" stroke-width="17" stroke-miterlimit="10" d="M169.719,228.105
		l-6.433-30.521c-4.673-22.17-24.235-38.038-46.892-38.038c0-0.986-2.775-1.876-7.069-2.582v-8.46l-0.068,0.001
		c22.644-4.785,39.732-18.567,43.683-47c3.495-0.171,6.307-6.928,6.307-15.255c0-8.21-2.735-14.888-6.162-15.237
		c-2.571-14.276-11.807-26.335-24.55-34.577h0.008c1.902-2.312,2.946-4.829,2.946-7.461c0-11.308-19.262-20.475-43.023-20.475
		c-23.761,0-43.022,9.167-43.022,20.475c0,2.587,1.008,5.062,2.847,7.34h0.004C35.302,44.8,25.692,57.266,22.614,71.601
		c-0.69,3.208-1.052,6.51-1.052,9.882c0,6.938,0.167,10.222,0.871,11.086c0.032,33.635,19.786,51.074,46.872,56.274l-0.051,0.001
		v7.466h-0.001c-4.254,0.688-7.006,1.764-7.034,3.312h-0.004c-20.756,1.17-38.532,15.663-43.718,36.008l-7.431,29.154
		c-13.129,51.507,25.787,54.244,78.94,54.244C141.758,279.029,180.393,278.744,169.719,228.105z"/>
	<path clip-path="url(#SVGID_2_)" fill="none" stroke="#52187F" stroke-miterlimit="10" d="M22.65,101.521
		c-3.558,0-6.441-6.837-6.441-15.271c0-8.434,2.883-15.27,6.441-15.27"/>
	<path clip-path="url(#SVGID_2_)" fill="none" stroke="#52187F" stroke-miterlimit="10" d="M116.394,159.545
		c22.658,0,42.219,15.868,46.892,38.038l6.434,30.521c10.674,50.639-27.96,50.924-79.712,50.924h-0.001
		c-53.153,0-92.069-2.737-78.94-54.244l7.431-29.154c5.187-20.345,22.963-34.838,43.719-36.008"/>
	<path clip-path="url(#SVGID_2_)" fill="none" stroke="#52187F" stroke-miterlimit="10" d="M109.325,156.964
		c4.294,0.705,7.069,1.594,7.069,2.582c0,9.949-27.105,50.429-27.105,50.429s-27.072-33.602-27.072-50.33
		c0-1.561,2.761-2.644,7.036-3.336"/>
	<path clip-path="url(#SVGID_2_)" fill="none" stroke="#52187F" stroke-miterlimit="10" d="M109.325,148.504v10.156
		c0,9.597-7.78,17.377-17.378,17.377h-5.315c-9.598,0-17.378-7.78-17.378-17.377v-9.816"/>
	<path clip-path="url(#SVGID_2_)" fill="none" stroke="#52187F" stroke-miterlimit="10" d="M153.82,88.28
		c0,47.111-29.412,62.27-65.694,62.27c-36.282,0-65.695-16.962-65.695-58.062"/>
	<path clip-path="url(#SVGID_2_)" fill="none" stroke="#52187F" stroke-miterlimit="10" d="M153.82,79.131
		c0,31.464,4.907-26.936-65.338-26.936c-7.054,0-27.877,13.795-33.34,15.487C37.12,73.265,28.692,86.74,24.8,91.285
		c-2.76,3.223-3.238,1.955-3.238-9.802c0-3.371,0.363-6.673,1.052-9.882c5.742-26.735,34.185-46.987,64.966-46.987
		C122.056,24.614,153.82,47.667,153.82,79.131z"/>
	<path clip-path="url(#SVGID_2_)" fill="none" stroke="#52187F" stroke-miterlimit="10" d="M48.291,36.315
		c-1.839-2.279-2.847-4.753-2.847-7.34c0-11.309,19.262-20.476,43.022-20.476c23.761,0,43.023,9.167,43.023,20.476
		c0,2.632-1.044,5.148-2.945,7.46"/>
	<circle clip-path="url(#SVGID_2_)" fill="none" stroke="#52187F" stroke-miterlimit="10" cx="90" cy="217.728" r="2.847"/>
	<circle clip-path="url(#SVGID_2_)" fill="none" stroke="#52187F" stroke-miterlimit="10" cx="90" cy="237.166" r="2.847"/>
	<circle clip-path="url(#SVGID_2_)" fill="none" stroke="#52187F" stroke-miterlimit="10" cx="90" cy="255.811" r="2.847"/>
	<path clip-path="url(#SVGID_2_)" fill="none" stroke="#52187F" stroke-miterlimit="10" d="M106.638,125.009l26.39-5.963
		c9.118-2.061,16.554-8.632,19.719-17.427"/>
	<path clip-path="url(#SVGID_2_)" fill="none" stroke="#52187F" stroke-miterlimit="10" d="M152.806,101.521
		c3.558,0,6.441-6.837,6.441-15.271c0-8.434-2.883-15.27-6.441-15.27"/>
	<path clip-path="url(#SVGID_2_)" fill="none" stroke="#52187F" stroke-miterlimit="10" d="M103.666,130.017l-16.451,2.105
		c-2.019,0.258-3.883-1.183-4.142-3.202c-0.258-2.02,1.183-3.884,3.202-4.142l16.451-2.105c2.02-0.259,3.884,1.182,4.142,3.202
		C107.127,127.896,105.686,129.759,103.666,130.017z"/>
</g>
</svg>
